<svg xmlns="http://www.w3.org/2000/svg" version="1.1" xmlns:xlink="http://www.w3.org/1999/xlink" xmlns:svgjs="http://svgjs.dev/svgjs" width="100%" height="100%" viewBox="0 0 1000 600"><rect width="1000" height="600" x="0" y="0" fill="#ffff"/><g><circle r="166.66666666666666" cx="409.98205057779944" cy="432.2044146482833" fill="#292826" transform="matrix(0.5137362341031593,0,0,0.5137362341031593,0,77.96092826033048)"/><path d="M419.256341345153 373.4966567364019L465.6130528837592 373.4966567364019L465.6130528837592 357.2044117203052L354.3510846713142 357.2044117203052L354.3510846713142 373.4966567364019L400.7077962099205 373.4966567364019L400.7077962099205 507.20441574440474L419.256341345153 507.20441574440474L419.256341345153 373.4966567364019Z " fill="#f9d342" transform="matrix(0.5137362341031593,0,0,0.5137362341031593,0,77.96092826033048)"/><path d="M720.7224712922646 380.1568796168858L764.104554782248 380.1568796168858L764.104554782248 364.91007909828227L659.9820699456695 364.91007909828227L659.9820699456695 380.1568796168858L703.364153435653 380.1568796168858L703.364153435653 505.2848486211808L720.7224712922646 505.2848486211808L720.7224712922646 380.1568796168858ZM782.9162547026833 452.1678475338875L782.9162547026833 452.1678475338875L782.9162547026833 454.27936487189555Q782.9162547026833 465.5773537453931 786.179508770514 475.2025821303389Q789.4701851414356 484.8552328183757 795.6402033369136 491.98503162203923L795.6402033369136 491.98503162203923Q801.7005323200277 499.11483042570273 810.530513915334 503.17333128317273Q819.3604955106405 507.2044098375518 830.43910595941 507.2044098375518L830.43910595941 507.2044098375518Q841.4354494989063 507.2044098375518 850.2105864880307 503.17333128317273Q858.9583011740641 499.11483042570273 865.128319369542 491.98503162203923L865.128319369542 491.98503162203923Q871.2160706557471 484.8552328183757 874.4793247235777 475.2025821303389Q877.7700010944993 465.5773537453931 877.7700010944993 454.27936487189555L877.7700010944993 454.27936487189555L877.7700010944993 452.1678475338875Q877.7700010944993 440.89728096348097 874.4793247235777 431.1897856692621Q871.2160706557471 421.50971267813435 865.128319369542 414.3799138744708L865.128319369542 414.3799138744708Q858.9583011740641 407.2501150708073 850.1557418818486 403.1367696071552Q841.3257602865423 399.0508464465942 830.2471498377729 399.0508464465942L830.2471498377729 399.0508464465942Q819.2508062982763 399.0508464465942 810.475669309152 403.1367696071552Q801.7005323200277 407.2501150708073 795.6402033369136 414.3799138744708L795.6402033369136 414.3799138744708Q789.4701851414356 421.50971267813435 786.179508770514 431.1897856692621Q782.9162547026833 440.89728096348097 782.9162547026833 452.1678475338875ZM800.7407517118422 454.27936487189555L800.7407517118422 454.27936487189555L800.7407517118422 452.1678475338875Q800.7407517118422 444.54444727458576 802.5780460189401 437.5517599863773Q804.4153403260381 430.55907269816885 808.1721958495069 425.2665682016032L808.1721958495069 425.2665682016032Q811.8193621606117 419.97406370503757 817.3312450819054 416.82049884957104Q822.8157057001081 413.69435629719544 830.2471498377729 413.69435629719544L830.2471498377729 413.69435629719544Q837.6511716723464 413.69435629719544 843.2178991998222 416.82049884957104Q848.757204424207 419.97406370503757 852.5140599476758 425.2665682016032L852.5140599476758 425.2665682016032Q856.1612262587806 430.55907269816885 858.0533651720606 437.5517599863773Q859.9455040853405 444.54444727458576 859.9455040853405 452.1678475338875L859.9455040853405 452.1678475338875L859.9455040853405 454.27936487189555Q859.9455040853405 461.9850320404704 858.1082097782427 468.97771932867886Q856.2709154711447 475.9704066168873 852.5963268569488 481.29033341654394L852.5963268569488 481.29033341654394Q848.83947133348 486.58283791310953 843.3001661090952 489.6541358593031Q837.7608608847106 492.7528561085876 830.43910595941 492.7528561085876L830.43910595941 492.7528561085876Q823.0076618217452 492.7528561085876 817.4135119911784 489.6541358593031Q811.8193621606117 486.58283791310953 808.1721958495069 481.29033341654394L808.1721958495069 481.29033341654394Q804.4153403260381 475.9704066168873 802.5780460189401 468.97771932867886Q800.7407517118422 461.9850320404704 800.7407517118422 454.27936487189555ZM903.0259422413228 452.25011444316056L903.0259422413228 452.25011444316056L903.0259422413228 454.27936487189555Q903.0259422413228 465.4676645330291 906.0149732782434 475.1477375241569Q909.0040043151639 484.8552328183757 914.4061980240936 491.98503162203923L914.4061980240936 491.98503162203923Q919.8083917330232 499.11483042570273 927.4592142954159 503.17333128317273Q935.1374591608999 507.2044098375518 944.5707314242085 507.2044098375518L944.5707314242085 507.2044098375518Q954.2233821122452 507.2044098375518 961.4628701282728 503.94115576972115Q968.6749358412094 500.6504793987996 973.885173428502 494.2885050816844L973.885173428502 494.2885050816844L974.6529979150503 505.2848486211808L991.0515351634765 505.2848486211808L991.0515351634765 357.2044119297075L973.1996158512267 357.2044119297075L973.1996158512267 411.28119362518623Q968.0990674762982 405.3031315513453 961.1063801880896 402.17698899896976Q954.1136928998812 399.0508464465942 944.7626875458456 399.0508464465942L944.7626875458456 399.0508464465942Q935.2197260701728 399.0508464465942 927.514058901598 402.99965809170016Q919.8083917330232 406.94846973680615 914.4061980240936 413.99600163119663L914.4061980240936 413.99600163119663Q908.9217374058908 421.0161112224961 905.9601286720613 430.80587342598795Q903.0259422413228 440.5956356294798 903.0259422413228 452.25011444316056ZM920.8504392504817 454.27936487189555L920.8504392504817 454.27936487189555L920.8504392504817 452.25011444316056Q920.8504392504817 444.6541364869498 922.4957774359425 437.7437161080144Q924.1411156214033 430.86071803217 927.623748113962 425.56821353560434L927.623748113962 425.56821353560434Q930.9966913941566 420.3579759483118 936.3440404969044 417.2592556990272Q941.691389599652 414.1879577528337 949.2051006465897 414.1879577528337L949.2051006465897 414.1879577528337Q957.980237635714 414.1879577528337 963.848610497191 418.27388091339475Q969.744405661759 422.3872263770468 973.1996158512267 428.7492006941619L973.1996158512267 428.7492006941619L973.1996158512267 477.1221433467099Q969.744405661759 483.9777191194633 963.848610497191 488.0362199769333Q957.980237635714 492.0672985313123 949.0131445249526 492.0672985313123L949.0131445249526 492.0672985313123Q941.581700387288 492.0672985313123 936.2891958907223 489.0508451913008Q930.9966913941566 486.0069695481983 927.623748113962 480.79673196090573L927.623748113962 480.79673196090573Q924.1411156214033 475.5864943736131 922.4957774359425 468.75834090395074Q920.8504392504817 461.9027651311973 920.8504392504817 454.27936487189555ZM1019.8723757121318 452.1678475338875L1019.8723757121318 452.1678475338875L1019.8723757121318 454.27936487189555Q1019.8723757121318 465.5773537453931 1023.1630520830535 475.2025821303389Q1026.426306150884 484.8552328183757 1032.596324346362 491.98503162203923L1032.596324346362 491.98503162203923Q1038.684075632567 499.11483042570273 1047.4866349247825 503.17333128317273Q1056.3166165200887 507.2044098375518 1067.3952269688584 507.2044098375518L1067.3952269688584 507.2044098375518Q1078.3915705083548 507.2044098375518 1087.166707497479 503.17333128317273Q1095.9418444866035 499.11483042570273 1102.1118626820817 491.98503162203923L1102.1118626820817 491.98503162203923Q1108.1721916651954 484.8552328183757 1111.462868036117 475.2025821303389Q1114.7261221039478 465.5773537453931 1114.7261221039478 454.27936487189555L1114.7261221039478 454.27936487189555L1114.7261221039478 452.1678475338875Q1114.7261221039478 440.89728096348097 1111.462868036117 431.1897856692621Q1108.1721916651954 421.50971267813435 1102.1118626820817 414.3799138744708L1102.1118626820817 414.3799138744708Q1095.9418444866035 407.2501150708073 1087.111862891297 403.1367696071552Q1078.2818812959906 399.0508464465942 1067.2032708472211 399.0508464465942L1067.2032708472211 399.0508464465942Q1056.2069273077248 399.0508464465942 1047.4317903186004 403.1367696071552Q1038.684075632567 407.2501150708073 1032.596324346362 414.3799138744708L1032.596324346362 414.3799138744708Q1026.426306150884 421.50971267813435 1023.1630520830535 431.1897856692621Q1019.8723757121318 440.89728096348097 1019.8723757121318 452.1678475338875ZM1037.6968727212907 454.27936487189555L1037.6968727212907 454.27936487189555L1037.6968727212907 452.1678475338875Q1037.6968727212907 444.54444727458576 1039.5341670283885 437.5517599863773Q1041.3714613354864 430.55907269816885 1045.1283168589553 425.2665682016032L1045.1283168589553 425.2665682016032Q1048.8029054731512 419.97406370503757 1054.2873660913538 416.82049884957104Q1059.7718267095565 413.69435629719544 1067.2032708472211 413.69435629719544L1067.2032708472211 413.69435629719544Q1074.634714984886 413.69435629719544 1080.1740202092706 416.82049884957104Q1085.7133254336554 419.97406370503757 1089.4701809571243 425.2665682016032L1089.4701809571243 425.2665682016032Q1093.14476957132 430.55907269816885 1095.009486181509 437.5517599863773Q1096.9016250947889 444.54444727458576 1096.9016250947889 452.1678475338875L1096.9016250947889 452.1678475338875L1096.9016250947889 454.27936487189555Q1096.9016250947889 461.9850320404704 1095.064330787691 468.97771932867886Q1093.2270364805931 475.9704066168873 1089.5798701694885 481.29033341654394L1089.5798701694885 481.29033341654394Q1085.8230146460194 486.58283791310953 1080.2837094216347 489.6541358593031Q1074.7169818941588 492.7528561085876 1067.3952269688584 492.7528561085876L1067.3952269688584 492.7528561085876Q1059.9912051342847 492.7528561085876 1054.397055303718 489.6541358593031Q1048.8029054731512 486.58283791310953 1045.1283168589553 481.29033341654394L1045.1283168589553 481.29033341654394Q1041.3714613354864 475.9704066168873 1039.5341670283885 468.97771932867886Q1037.6968727212907 461.9850320404704 1037.6968727212907 454.27936487189555ZM1174.4244759330845 493.7126367167731L1174.4244759330845 493.7126367167731Q1174.4244759330845 499.30678654733987 1177.934530728734 503.2007535862638Q1181.444585524384 507.1221429282788 1188.3824282064102 507.1221429282788L1188.3824282064102 507.1221429282788Q1195.2380039791638 507.1221429282788 1198.9125925933595 503.25559819244586Q1202.5597589044642 499.4164757597039 1202.5597589044642 493.7126367167731L1202.5597589044642 493.7126367167731Q1202.5597589044642 487.92653076456924 1198.9400148964505 483.9228745132813Q1195.3202708884367 479.91921826199325 1188.3824282064102 479.91921826199325L1188.3824282064102 479.91921826199325Q1181.3623186151108 479.91921826199325 1177.879686122552 483.9777191194633Q1174.4244759330845 488.0362199769333 1174.4244759330845 493.7126367167731ZM1350.6401955959375 490.1477373149413L1282.0021709591306 490.1477373149413L1282.0021709591306 364.91007909828227L1264.177673949972 364.91007909828227L1264.177673949972 505.2848486211808L1350.6401955959375 505.2848486211808L1350.6401955959375 490.1477373149413ZM1436.4445819677192 400.97040766296516L1383.1356247587887 400.97040766296516L1383.1356247587887 416.49143121247886L1418.6200849585603 416.49143121247886L1418.6200849585603 489.8460919809402L1383.1356247587887 489.8460919809402L1383.1356247587887 505.2848486211808L1470.475660103667 505.2848486211808L1470.475660103667 489.8460919809402L1436.4445819677192 489.8460919809402L1436.4445819677192 400.97040766296516ZM1416.289189195824 373.6029491781336L1416.289189195824 373.6029491781336Q1416.289189195824 377.93567306651374 1418.9491525956525 380.8150148910702Q1421.6091159954808 383.7217790187176 1427.0113097044107 383.7217790187176L1427.0113097044107 383.7217790187176Q1432.3038142009761 383.7217790187176 1434.9911999038957 380.8150148910702Q1437.7060079099058 377.93567306651374 1437.7060079099058 373.6029491781336L1437.7060079099058 373.6029491781336Q1437.7060079099058 371.1897865061244 1436.9381834233575 369.1605360773894Q1436.142936633718 367.1312856486544 1434.607287660621 365.78759279719475L1434.607287660621 365.78759279719475Q1433.3732840215255 364.5261668550081 1431.4263005020637 363.8131869746417Q1429.506739285693 363.0727847911844 1427.0113097044107 363.0727847911844L1427.0113097044107 363.0727847911844Q1424.488457820037 363.0727847911844 1422.5140519974843 363.8131869746417Q1420.5396461749312 364.5261668550081 1419.2782202327446 365.78759279719475L1419.2782202327446 365.78759279719475Q1417.742571259648 367.24097486101846 1417.0295913792816 369.24280298666247Q1416.289189195824 371.27205341539747 1416.289189195824 373.6029491781336ZM1568.1264814107662 477.6157448023481L1568.1264814107662 477.6157448023481Q1568.1264814107662 480.1111743836303 1567.1667008025809 482.33238093400246Q1566.2069201943953 484.5535874843746 1564.3696258872976 486.39088179147245L1564.3696258872976 486.39088179147245Q1561.380594850377 489.37991282839295 1556.0880903538116 491.0526733169448Q1550.7955858572457 492.7528561085876 1543.6383647504915 492.7528561085876L1543.6383647504915 492.7528561085876Q1539.113684740474 492.7528561085876 1534.4793155180926 491.79307550040215Q1529.8723685988023 490.8332948922167 1526.1155130753334 488.5023991294805L1526.1155130753334 488.5023991294805Q1522.2489683395008 486.1989256698354 1519.6986941520363 482.4420701463665Q1517.1484199645722 478.68521462289766 1516.764507721298 473.17333170160396L1516.764507721298 473.17333170160396L1498.9125884090483 473.17333170160396Q1498.9125884090483 479.83695135272023 1501.9564640521505 486.0069695481983Q1505.0003396952532 492.17698774367636 1510.786445647457 496.8113569660576L1510.786445647457 496.8113569660576Q1516.4628623872968 501.52799309771194 1524.7443979207828 504.3799126191774Q1533.0533557573601 507.2044098375518 1543.6383647504915 507.2044098375518L1543.6383647504915 507.2044098375518Q1552.9071031952537 507.2044098375518 1560.7224595761925 504.98320328717966Q1568.5103936540406 502.7894190398986 1574.1045434846073 498.7309181824286L1574.1045434846073 498.7309181824286Q1579.698693315174 494.6724173249586 1582.8522581706407 488.99600058511874Q1585.9784007230162 483.29216154218796 1585.9784007230162 476.35431886016147L1585.9784007230162 476.35431886016147Q1585.9784007230162 469.9100776337733 1583.2361704139148 464.97406307739084Q1580.4665178017224 460.06547082409946 1575.2837025175209 456.30861530063055L1575.2837025175209 456.30861530063055Q1570.0734649302283 452.63402668643477 1562.4500646709264 450.0014855896975Q1554.8266644116247 447.3415221898691 1545.2014360266792 445.3122717611341L1545.2014360266792 445.3122717611341Q1537.8522587982873 443.8863120004014 1533.0807780604512 442.32324072421363Q1528.3092973226146 440.7875917511169 1525.5122224073314 438.8680305347459L1525.5122224073314 438.8680305347459Q1522.632880582775 436.921047015284 1521.481143852952 434.53530664636577Q1520.3294071231296 432.1221439743566 1520.3294071231296 429.02342372507206L1520.3294071231296 429.02342372507206Q1520.3294071231296 426.03439268815157 1521.7553668838625 423.2373177728682Q1523.208748947686 420.4402428575848 1526.1155130753334 418.3287255195768L1526.1155130753334 418.3287255195768Q1528.9125879906169 416.2172081815687 1533.190467272815 414.9557822393821Q1537.468346555013 413.69435629719544 1543.172185597944 413.69435629719544L1543.172185597944 413.69435629719544Q1548.6566462161468 413.69435629719544 1553.044214710709 415.2300052702922Q1557.431783205271 416.79307654648 1560.5305034545556 419.2885061277622L1560.5305034545556 419.2885061277622Q1563.601801400749 421.7839357090445 1565.329406495483 425.0197674737841Q1567.0844338933077 428.2555992385237 1567.0844338933077 431.62854251871835L1567.0844338933077 431.62854251871835L1584.9089309024666 431.62854251871835Q1584.9089309024666 424.77296674596494 1581.9747444717282 418.84974927830604Q1579.04055804099 412.9265318106471 1573.63836433206 408.4841187099029L1573.63836433206 408.4841187099029Q1568.2361706231304 404.0691279122497 1560.5305034545556 401.54627602787644Q1552.7974139828896 399.0508464465942 1543.172185597944 399.0508464465942L1543.172185597944 399.0508464465942Q1534.2050924871826 399.0508464465942 1526.718803743336 401.46400911860337Q1519.25993730258 403.8771717906126 1513.8577435936506 408.01793955735565L1513.8577435936506 408.01793955735565Q1508.4555498847208 412.1587073240987 1505.4665188478004 417.69801254848346Q1502.47748781088 423.2373177728682 1502.47748781088 429.59929208998335L1502.47748781088 429.59929208998335Q1502.47748781088 436.07095561946255 1505.3842519385273 440.92470326657195Q1508.2635937630837 445.8058732167724 1513.5835205627402 449.3707726186041L1513.5835205627402 449.3707726186041Q1518.766335846942 453.04536123279996 1526.1429353784245 455.62305772335526Q1533.5195349099074 458.22817651700154 1542.4866280206686 460.06547082409946L1542.4866280206686 460.06547082409946Q1549.8083829459695 461.5188528879231 1554.7443975023518 463.301302588839Q1559.6529897556431 465.08375228975495 1562.6420207925637 467.19526962776297L1562.6420207925637 467.19526962776297Q1565.6310518294842 469.334209268862 1566.8924777716707 471.8844834563263Q1568.1264814107662 474.43475764379053 1568.1264814107662 477.6157448023481ZM1659.5250176131146 400.97040766296516L1659.5250176131146 375.71446651614167L1641.5908313915918 375.71446651614167L1641.5908313915918 400.97040766296516L1614.22337290676 400.97040766296516L1614.22337290676 414.763826117745L1641.5908313915918 414.763826117745L1641.5908313915918 471.44572660687004Q1641.5908313915918 481.09837729490687 1644.141105579056 487.8716861583872Q1646.7188020696112 494.6724173249586 1651.1337928672644 498.92287430406566L1651.1337928672644 498.92287430406566Q1655.576205968009 503.25559819244586 1661.6091126480317 505.2300040149988Q1667.6420193280549 507.2044098375518 1674.5798620100811 507.2044098375518L1674.5798620100811 507.2044098375518Q1678.7206297768241 507.2044098375518 1682.9162421497492 506.8204975942776Q1687.1118545226743 506.4365853510034 1690.8687100461432 505.668760864455L1690.8687100461432 505.668760864455Q1694.625565569612 504.98320328717966 1697.8065527281694 503.99600037590324Q1700.9875398867273 502.98137516153565 1703.2087464370995 501.61026000698496L1703.2087464370995 501.61026000698496L1700.6858945527258 488.99600058511874Q1699.067978670356 489.37991282839295 1696.4902821798007 489.9009365871222Q1693.9400079923369 490.4493826489425 1691.0606661677805 490.91556180148973L1691.0606661677805 490.91556180148973Q1688.07163513086 491.40916325712794 1684.9729148815752 491.7382308942201Q1681.9016169353815 492.0672985313123 1678.994852807734 492.0672985313123L1678.994852807734 492.0672985313123Q1675.0460411626284 492.0672985313123 1671.5359863669787 491.1075179231268Q1668.025931571329 490.1477373149413 1665.3111235653184 487.7345746429321L1665.3111235653184 487.7345746429321Q1662.6237378623994 485.43110118328696 1661.0606665862113 481.482289538181Q1659.5250176131146 477.50605558998404 1659.5250176131146 471.44572660687004L1659.5250176131146 471.44572660687004L1659.5250176131146 414.763826117745L1699.2599347919934 414.763826117745L1699.2599347919934 400.97040766296516L1659.5250176131146 400.97040766296516Z " fill="#292826" transform="matrix(0.5137362341031593,0,0,0.5137362341031593,0,77.96092826033048)"/></g></svg>